{
	"asset":{
		"generator":"Khronos glTF Blender I/O v4.2.60",
		"version":"2.0"
	},
	"scene":0,
	"scenes":[
		{
			"extras":{
				"ypui":{
					"expand_channels":0,
					"expand_mask_channels":0,
					"show_bake_targets":0,
					"show_channels":1,
					"show_layers":1,
					"show_materials":0,
					"show_object":0,
					"show_stats":0,
					"show_support":0,
					"tree_name":""
				}
			},
			"name":"Scene",
			"nodes":[
				0,
				1,
				2,
				3,
				4,
				5,
				6,
				7,
				8,
				9,
				10,
				11,
				12,
				13,
				14,
				15,
				16
			]
		}
	],
	"nodes":[
		{
			"mesh":0,
			"name":"Cube-col.003",
			"rotation":[
				0,
				0,
				0.7071066498756409,
				0.70710688829422
			],
			"translation":[
				-2,
				8,
				0
			]
		},
		{
			"mesh":1,
			"name":"Cube-col.002",
			"rotation":[
				0,
				0,
				0.7071066498756409,
				0.70710688829422
			],
			"translation":[
				2,
				4,
				0
			]
		},
		{
			"mesh":2,
			"name":"Cube-col.001",
			"translation":[
				0,
				-2.6666665077209473,
				0
			]
		},
		{
			"mesh":3,
			"name":"Cube-col.004",
			"scale":[
				1.0802018642425537,
				1,
				1
			],
			"translation":[
				10.328126907348633,
				-15,
				0
			]
		},
		{
			"mesh":4,
			"name":"Cube-col.005",
			"rotation":[
				0,
				0,
				0.7071066498756409,
				0.70710688829422
			],
			"translation":[
				-25,
				-7,
				0
			]
		},
		{
			"mesh":5,
			"name":"Cube-col.006",
			"scale":[
				1.0802018642425537,
				1,
				1
			],
			"translation":[
				0,
				16,
				0
			]
		},
		{
			"mesh":6,
			"name":"Cube-col.007",
			"rotation":[
				0,
				0,
				0.7071066498756409,
				0.70710688829422
			],
			"translation":[
				24.700000762939453,
				-7,
				0
			]
		},
		{
			"mesh":7,
			"name":"Cube-col.008",
			"scale":[
				1.0802018642425537,
				1,
				1
			],
			"translation":[
				27,
				16,
				0
			]
		},
		{
			"mesh":8,
			"name":"Cube-col.009",
			"rotation":[
				0,
				0,
				0.7071066498756409,
				0.70710688829422
			],
			"translation":[
				21.717803955078125,
				-6,
				0
			]
		},
		{
			"mesh":9,
			"name":"Cube-col.010",
			"scale":[
				1.0802018642425537,
				1,
				1
			],
			"translation":[
				27,
				15,
				0
			]
		},
		{
			"mesh":10,
			"name":"Cube-col.011",
			"rotation":[
				0,
				0,
				0.7071066498756409,
				0.70710688829422
			],
			"translation":[
				-0.10000000149011612,
				-11.666666030883789,
				0
			]
		},
		{
			"mesh":11,
			"name":"Cube-col.013",
			"translation":[
				0,
				-11,
				0
			]
		},
		{
			"mesh":12,
			"name":"Cube-col.014",
			"translation":[
				-15,
				-7,
				0
			]
		},
		{
			"mesh":13,
			"name":"Cube-col.015",
			"translation":[
				-7,
				-4,
				0
			]
		},
		{
			"mesh":14,
			"name":"Cube-col.016",
			"translation":[
				6,
				-2,
				0
			]
		},
		{
			"mesh":15,
			"name":"Suzanne",
			"translation":[
				0,
				17.105487823486328,
				2.2982735572441015e-06
			]
		},
		{
			"mesh":16,
			"name":"Suzanne.001",
			"translation":[
				44.06980895996094,
				-12.97657585144043,
				0
			]
		}
	],
	"materials":[
		{
			"doubleSided":true,
			"extras":{
				"yp":{
					"active_ypaint_node":""
				}
			},
			"name":"Material.001",
			"pbrMetallicRoughness":{
				"baseColorFactor":[
					0.800000011920929,
					0.800000011920929,
					0.800000011920929,
					1
				],
				"metallicFactor":0,
				"roughnessFactor":0.5
			}
		}
	],
	"meshes":[
		{
			"name":"Cube.006",
			"primitives":[
				{
					"attributes":{
						"POSITION":0,
						"NORMAL":1,
						"TEXCOORD_0":2,
						"TANGENT":3
					},
					"indices":4,
					"material":0
				}
			]
		},
		{
			"name":"Cube.005",
			"primitives":[
				{
					"attributes":{
						"POSITION":5,
						"NORMAL":6,
						"TEXCOORD_0":7,
						"TANGENT":8
					},
					"indices":4,
					"material":0
				}
			]
		},
		{
			"name":"Cube.001",
			"primitives":[
				{
					"attributes":{
						"POSITION":9,
						"NORMAL":10,
						"TEXCOORD_0":11,
						"TANGENT":12
					},
					"indices":4,
					"material":0
				}
			]
		},
		{
			"name":"Cube.002",
			"primitives":[
				{
					"attributes":{
						"POSITION":13,
						"NORMAL":14,
						"TEXCOORD_0":15,
						"TANGENT":16
					},
					"indices":4,
					"material":0
				}
			]
		},
		{
			"name":"Cube.003",
			"primitives":[
				{
					"attributes":{
						"POSITION":17,
						"NORMAL":18,
						"TEXCOORD_0":19,
						"TANGENT":20
					},
					"indices":4,
					"material":0
				}
			]
		},
		{
			"name":"Cube.004",
			"primitives":[
				{
					"attributes":{
						"POSITION":21,
						"NORMAL":22,
						"TEXCOORD_0":23,
						"TANGENT":24
					},
					"indices":4,
					"material":0
				}
			]
		},
		{
			"name":"Cube.007",
			"primitives":[
				{
					"attributes":{
						"POSITION":25,
						"NORMAL":26,
						"TEXCOORD_0":27,
						"TANGENT":28
					},
					"indices":4,
					"material":0
				}
			]
		},
		{
			"name":"Cube.008",
			"primitives":[
				{
					"attributes":{
						"POSITION":29,
						"NORMAL":30,
						"TEXCOORD_0":31,
						"TANGENT":32
					},
					"indices":4,
					"material":0
				}
			]
		},
		{
			"name":"Cube.009",
			"primitives":[
				{
					"attributes":{
						"POSITION":33,
						"NORMAL":34,
						"TEXCOORD_0":35,
						"TANGENT":36
					},
					"indices":4,
					"material":0
				}
			]
		},
		{
			"name":"Cube.010",
			"primitives":[
				{
					"attributes":{
						"POSITION":37,
						"NORMAL":38,
						"TEXCOORD_0":39,
						"TANGENT":40
					},
					"indices":4,
					"material":0
				}
			]
		},
		{
			"name":"Cube.011",
			"primitives":[
				{
					"attributes":{
						"POSITION":41,
						"NORMAL":42,
						"TEXCOORD_0":43,
						"TANGENT":44
					},
					"indices":4,
					"material":0
				}
			]
		},
		{
			"name":"Cube.013",
			"primitives":[
				{
					"attributes":{
						"POSITION":45,
						"NORMAL":46,
						"TEXCOORD_0":47,
						"TANGENT":48
					},
					"indices":4,
					"material":0
				}
			]
		},
		{
			"name":"Cube.015",
			"primitives":[
				{
					"attributes":{
						"POSITION":49,
						"NORMAL":50,
						"TEXCOORD_0":51,
						"TANGENT":52
					},
					"indices":4,
					"material":0
				}
			]
		},
		{
			"name":"Cube.016",
			"primitives":[
				{
					"attributes":{
						"POSITION":53,
						"NORMAL":54,
						"TEXCOORD_0":55,
						"TANGENT":56
					},
					"indices":4,
					"material":0
				}
			]
		},
		{
			"name":"Cube.017",
			"primitives":[
				{
					"attributes":{
						"POSITION":57,
						"NORMAL":58,
						"TEXCOORD_0":59,
						"TANGENT":60
					},
					"indices":4,
					"material":0
				}
			]
		},
		{
			"name":"Suzanne",
			"primitives":[
				{
					"attributes":{
						"POSITION":61,
						"NORMAL":62,
						"TEXCOORD_0":63,
						"TANGENT":64
					},
					"indices":65
				}
			]
		},
		{
			"name":"Suzanne.001",
			"primitives":[
				{
					"attributes":{
						"POSITION":66,
						"NORMAL":67,
						"TEXCOORD_0":68,
						"TANGENT":69
					},
					"indices":65
				}
			]
		}
	],
	"accessors":[
		{
			"bufferView":0,
			"componentType":5126,
			"count":24,
			"max":[
				12,
				1.55765735598834e-06,
				1
			],
			"min":[
				-5,
				-0.28819215297698975,
				-1
			],
			"type":"VEC3"
		},
		{
			"bufferView":1,
			"componentType":5126,
			"count":24,
			"type":"VEC3"
		},
		{
			"bufferView":2,
			"componentType":5126,
			"count":24,
			"type":"VEC2"
		},
		{
			"bufferView":3,
			"componentType":5126,
			"count":24,
			"type":"VEC4"
		},
		{
			"bufferView":4,
			"componentType":5123,
			"count":36,
			"type":"SCALAR"
		},
		{
			"bufferView":5,
			"componentType":5126,
			"count":24,
			"max":[
				16,
				2.3364862045127666e-06,
				1
			],
			"min":[
				-1,
				-0.28819137811660767,
				-1
			],
			"type":"VEC3"
		},
		{
			"bufferView":6,
			"componentType":5126,
			"count":24,
			"type":"VEC3"
		},
		{
			"bufferView":7,
			"componentType":5126,
			"count":24,
			"type":"VEC2"
		},
		{
			"bufferView":8,
			"componentType":5126,
			"count":24,
			"type":"VEC4"
		},
		{
			"bufferView":9,
			"componentType":5126,
			"count":24,
			"max":[
				23.11326789855957,
				-10.711797714233398,
				1.0000019073486328
			],
			"min":[
				-23.11326789855957,
				-11.000004768371582,
				-1.0000044107437134
			],
			"type":"VEC3"
		},
		{
			"bufferView":10,
			"componentType":5126,
			"count":24,
			"type":"VEC3"
		},
		{
			"bufferView":11,
			"componentType":5126,
			"count":24,
			"type":"VEC2"
		},
		{
			"bufferView":12,
			"componentType":5126,
			"count":24,
			"type":"VEC4"
		},
		{
			"bufferView":13,
			"componentType":5126,
			"count":24,
			"max":[
				32.674560546875,
				0.1441030502319336,
				1.0000026226043701
			],
			"min":[
				-32.674560546875,
				-0.14410400390625,
				-1.000003695487976
			],
			"type":"VEC3"
		},
		{
			"bufferView":14,
			"componentType":5126,
			"count":24,
			"type":"VEC3"
		},
		{
			"bufferView":15,
			"componentType":5126,
			"count":24,
			"type":"VEC2"
		},
		{
			"bufferView":16,
			"componentType":5126,
			"count":24,
			"type":"VEC4"
		},
		{
			"bufferView":17,
			"componentType":5126,
			"count":24,
			"max":[
				12,
				1.55765735598834e-06,
				1
			],
			"min":[
				-7.666656494140625,
				-0.28819265961647034,
				-1
			],
			"type":"VEC3"
		},
		{
			"bufferView":18,
			"componentType":5126,
			"count":24,
			"type":"VEC3"
		},
		{
			"bufferView":19,
			"componentType":5126,
			"count":24,
			"type":"VEC2"
		},
		{
			"bufferView":20,
			"componentType":5126,
			"count":24,
			"type":"VEC4"
		},
		{
			"bufferView":21,
			"componentType":5126,
			"count":24,
			"max":[
				-1.8515052795410156,
				-10.711797714233398,
				1.0000019073486328
			],
			"min":[
				-23.11326789855957,
				-11.000004768371582,
				-1.0000044107437134
			],
			"type":"VEC3"
		},
		{
			"bufferView":22,
			"componentType":5126,
			"count":24,
			"type":"VEC3"
		},
		{
			"bufferView":23,
			"componentType":5126,
			"count":24,
			"type":"VEC2"
		},
		{
			"bufferView":24,
			"componentType":5126,
			"count":24,
			"type":"VEC4"
		},
		{
			"bufferView":25,
			"componentType":5126,
			"count":24,
			"max":[
				12,
				1.55765735598834e-06,
				1
			],
			"min":[
				-7.666669845581055,
				-0.28819265961647034,
				-1
			],
			"type":"VEC3"
		},
		{
			"bufferView":26,
			"componentType":5126,
			"count":24,
			"type":"VEC3"
		},
		{
			"bufferView":27,
			"componentType":5126,
			"count":24,
			"type":"VEC2"
		},
		{
			"bufferView":28,
			"componentType":5126,
			"count":24,
			"type":"VEC4"
		},
		{
			"bufferView":29,
			"componentType":5126,
			"count":24,
			"max":[
				-1.8515052795410156,
				-10.711797714233398,
				1.0000019073486328
			],
			"min":[
				-22.95867156982422,
				-11.000004768371582,
				-1.0000044107437134
			],
			"type":"VEC3"
		},
		{
			"bufferView":30,
			"componentType":5126,
			"count":24,
			"type":"VEC3"
		},
		{
			"bufferView":31,
			"componentType":5126,
			"count":24,
			"type":"VEC2"
		},
		{
			"bufferView":32,
			"componentType":5126,
			"count":24,
			"type":"VEC4"
		},
		{
			"bufferView":33,
			"componentType":5126,
			"count":24,
			"max":[
				10,
				1.1682429885695456e-06,
				1
			],
			"min":[
				-3,
				-0.2821950614452362,
				-1
			],
			"type":"VEC3"
		},
		{
			"bufferView":34,
			"componentType":5126,
			"count":24,
			"type":"VEC3"
		},
		{
			"bufferView":35,
			"componentType":5126,
			"count":24,
			"type":"VEC2"
		},
		{
			"bufferView":36,
			"componentType":5126,
			"count":24,
			"type":"VEC4"
		},
		{
			"bufferView":37,
			"componentType":5126,
			"count":24,
			"max":[
				-4.6287641525268555,
				-10.711797714233398,
				1.0000019073486328
			],
			"min":[
				-22.95867156982422,
				-11.000004768371582,
				-1.0000044107437134
			],
			"type":"VEC3"
		},
		{
			"bufferView":38,
			"componentType":5126,
			"count":24,
			"type":"VEC3"
		},
		{
			"bufferView":39,
			"componentType":5126,
			"count":24,
			"type":"VEC2"
		},
		{
			"bufferView":40,
			"componentType":5126,
			"count":24,
			"type":"VEC4"
		},
		{
			"bufferView":41,
			"componentType":5126,
			"count":24,
			"max":[
				-1.9000005722045898,
				0.09999991953372955,
				1
			],
			"min":[
				-2.90000057220459,
				-0.3000008463859558,
				-1
			],
			"type":"VEC3"
		},
		{
			"bufferView":42,
			"componentType":5126,
			"count":24,
			"type":"VEC3"
		},
		{
			"bufferView":43,
			"componentType":5126,
			"count":24,
			"type":"VEC2"
		},
		{
			"bufferView":44,
			"componentType":5126,
			"count":24,
			"type":"VEC4"
		},
		{
			"bufferView":45,
			"componentType":5126,
			"count":24,
			"max":[
				3.080305337905884,
				0.1441030502319336,
				1.0000026226043701
			],
			"min":[
				-3.0803048610687256,
				-0.14410400390625,
				-1.000003695487976
			],
			"type":"VEC3"
		},
		{
			"bufferView":46,
			"componentType":5126,
			"count":24,
			"type":"VEC3"
		},
		{
			"bufferView":47,
			"componentType":5126,
			"count":24,
			"type":"VEC2"
		},
		{
			"bufferView":48,
			"componentType":5126,
			"count":24,
			"type":"VEC4"
		},
		{
			"bufferView":49,
			"componentType":5126,
			"count":24,
			"max":[
				3.080305337905884,
				0.1441030502319336,
				1.0000026226043701
			],
			"min":[
				-3.0803048610687256,
				-0.14410400390625,
				-1.000003695487976
			],
			"type":"VEC3"
		},
		{
			"bufferView":50,
			"componentType":5126,
			"count":24,
			"type":"VEC3"
		},
		{
			"bufferView":51,
			"componentType":5126,
			"count":24,
			"type":"VEC2"
		},
		{
			"bufferView":52,
			"componentType":5126,
			"count":24,
			"type":"VEC4"
		},
		{
			"bufferView":53,
			"componentType":5126,
			"count":24,
			"max":[
				3.080305337905884,
				0.1441030502319336,
				1.0000026226043701
			],
			"min":[
				-3.0803048610687256,
				-0.14410400390625,
				-1.000003695487976
			],
			"type":"VEC3"
		},
		{
			"bufferView":54,
			"componentType":5126,
			"count":24,
			"type":"VEC3"
		},
		{
			"bufferView":55,
			"componentType":5126,
			"count":24,
			"type":"VEC2"
		},
		{
			"bufferView":56,
			"componentType":5126,
			"count":24,
			"type":"VEC4"
		},
		{
			"bufferView":57,
			"componentType":5126,
			"count":24,
			"max":[
				3.080305337905884,
				0.1441030502319336,
				1.0000026226043701
			],
			"min":[
				-3.0803048610687256,
				-0.14410400390625,
				-1.000003695487976
			],
			"type":"VEC3"
		},
		{
			"bufferView":58,
			"componentType":5126,
			"count":24,
			"type":"VEC3"
		},
		{
			"bufferView":59,
			"componentType":5126,
			"count":24,
			"type":"VEC2"
		},
		{
			"bufferView":60,
			"componentType":5126,
			"count":24,
			"type":"VEC4"
		},
		{
			"bufferView":61,
			"componentType":5126,
			"count":1966,
			"max":[
				1.3671875,
				0.984375,
				0.8515625
			],
			"min":[
				-1.3671875,
				-0.984375,
				-0.8515625
			],
			"type":"VEC3"
		},
		{
			"bufferView":62,
			"componentType":5126,
			"count":1966,
			"type":"VEC3"
		},
		{
			"bufferView":63,
			"componentType":5126,
			"count":1966,
			"type":"VEC2"
		},
		{
			"bufferView":64,
			"componentType":5126,
			"count":1966,
			"type":"VEC4"
		},
		{
			"bufferView":65,
			"componentType":5123,
			"count":2904,
			"type":"SCALAR"
		},
		{
			"bufferView":66,
			"componentType":5126,
			"count":1966,
			"max":[
				1.3671875,
				0.984375,
				0.8515625
			],
			"min":[
				-1.3671875,
				-0.984375,
				-0.8515625
			],
			"type":"VEC3"
		},
		{
			"bufferView":67,
			"componentType":5126,
			"count":1966,
			"type":"VEC3"
		},
		{
			"bufferView":68,
			"componentType":5126,
			"count":1966,
			"type":"VEC2"
		},
		{
			"bufferView":69,
			"componentType":5126,
			"count":1966,
			"type":"VEC4"
		}
	],
	"bufferViews":[
		{
			"buffer":0,
			"byteLength":288,
			"byteOffset":0,
			"target":34962
		},
		{
			"buffer":0,
			"byteLength":288,
			"byteOffset":288,
			"target":34962
		},
		{
			"buffer":0,
			"byteLength":192,
			"byteOffset":576,
			"target":34962
		},
		{
			"buffer":0,
			"byteLength":384,
			"byteOffset":768,
			"target":34962
		},
		{
			"buffer":0,
			"byteLength":72,
			"byteOffset":1152,
			"target":34963
		},
		{
			"buffer":0,
			"byteLength":288,
			"byteOffset":1224,
			"target":34962
		},
		{
			"buffer":0,
			"byteLength":288,
			"byteOffset":1512,
			"target":34962
		},
		{
			"buffer":0,
			"byteLength":192,
			"byteOffset":1800,
			"target":34962
		},
		{
			"buffer":0,
			"byteLength":384,
			"byteOffset":1992,
			"target":34962
		},
		{
			"buffer":0,
			"byteLength":288,
			"byteOffset":2376,
			"target":34962
		},
		{
			"buffer":0,
			"byteLength":288,
			"byteOffset":2664,
			"target":34962
		},
		{
			"buffer":0,
			"byteLength":192,
			"byteOffset":2952,
			"target":34962
		},
		{
			"buffer":0,
			"byteLength":384,
			"byteOffset":3144,
			"target":34962
		},
		{
			"buffer":0,
			"byteLength":288,
			"byteOffset":3528,
			"target":34962
		},
		{
			"buffer":0,
			"byteLength":288,
			"byteOffset":3816,
			"target":34962
		},
		{
			"buffer":0,
			"byteLength":192,
			"byteOffset":4104,
			"target":34962
		},
		{
			"buffer":0,
			"byteLength":384,
			"byteOffset":4296,
			"target":34962
		},
		{
			"buffer":0,
			"byteLength":288,
			"byteOffset":4680,
			"target":34962
		},
		{
			"buffer":0,
			"byteLength":288,
			"byteOffset":4968,
			"target":34962
		},
		{
			"buffer":0,
			"byteLength":192,
			"byteOffset":5256,
			"target":34962
		},
		{
			"buffer":0,
			"byteLength":384,
			"byteOffset":5448,
			"target":34962
		},
		{
			"buffer":0,
			"byteLength":288,
			"byteOffset":5832,
			"target":34962
		},
		{
			"buffer":0,
			"byteLength":288,
			"byteOffset":6120,
			"target":34962
		},
		{
			"buffer":0,
			"byteLength":192,
			"byteOffset":6408,
			"target":34962
		},
		{
			"buffer":0,
			"byteLength":384,
			"byteOffset":6600,
			"target":34962
		},
		{
			"buffer":0,
			"byteLength":288,
			"byteOffset":6984,
			"target":34962
		},
		{
			"buffer":0,
			"byteLength":288,
			"byteOffset":7272,
			"target":34962
		},
		{
			"buffer":0,
			"byteLength":192,
			"byteOffset":7560,
			"target":34962
		},
		{
			"buffer":0,
			"byteLength":384,
			"byteOffset":7752,
			"target":34962
		},
		{
			"buffer":0,
			"byteLength":288,
			"byteOffset":8136,
			"target":34962
		},
		{
			"buffer":0,
			"byteLength":288,
			"byteOffset":8424,
			"target":34962
		},
		{
			"buffer":0,
			"byteLength":192,
			"byteOffset":8712,
			"target":34962
		},
		{
			"buffer":0,
			"byteLength":384,
			"byteOffset":8904,
			"target":34962
		},
		{
			"buffer":0,
			"byteLength":288,
			"byteOffset":9288,
			"target":34962
		},
		{
			"buffer":0,
			"byteLength":288,
			"byteOffset":9576,
			"target":34962
		},
		{
			"buffer":0,
			"byteLength":192,
			"byteOffset":9864,
			"target":34962
		},
		{
			"buffer":0,
			"byteLength":384,
			"byteOffset":10056,
			"target":34962
		},
		{
			"buffer":0,
			"byteLength":288,
			"byteOffset":10440,
			"target":34962
		},
		{
			"buffer":0,
			"byteLength":288,
			"byteOffset":10728,
			"target":34962
		},
		{
			"buffer":0,
			"byteLength":192,
			"byteOffset":11016,
			"target":34962
		},
		{
			"buffer":0,
			"byteLength":384,
			"byteOffset":11208,
			"target":34962
		},
		{
			"buffer":0,
			"byteLength":288,
			"byteOffset":11592,
			"target":34962
		},
		{
			"buffer":0,
			"byteLength":288,
			"byteOffset":11880,
			"target":34962
		},
		{
			"buffer":0,
			"byteLength":192,
			"byteOffset":12168,
			"target":34962
		},
		{
			"buffer":0,
			"byteLength":384,
			"byteOffset":12360,
			"target":34962
		},
		{
			"buffer":0,
			"byteLength":288,
			"byteOffset":12744,
			"target":34962
		},
		{
			"buffer":0,
			"byteLength":288,
			"byteOffset":13032,
			"target":34962
		},
		{
			"buffer":0,
			"byteLength":192,
			"byteOffset":13320,
			"target":34962
		},
		{
			"buffer":0,
			"byteLength":384,
			"byteOffset":13512,
			"target":34962
		},
		{
			"buffer":0,
			"byteLength":288,
			"byteOffset":13896,
			"target":34962
		},
		{
			"buffer":0,
			"byteLength":288,
			"byteOffset":14184,
			"target":34962
		},
		{
			"buffer":0,
			"byteLength":192,
			"byteOffset":14472,
			"target":34962
		},
		{
			"buffer":0,
			"byteLength":384,
			"byteOffset":14664,
			"target":34962
		},
		{
			"buffer":0,
			"byteLength":288,
			"byteOffset":15048,
			"target":34962
		},
		{
			"buffer":0,
			"byteLength":288,
			"byteOffset":15336,
			"target":34962
		},
		{
			"buffer":0,
			"byteLength":192,
			"byteOffset":15624,
			"target":34962
		},
		{
			"buffer":0,
			"byteLength":384,
			"byteOffset":15816,
			"target":34962
		},
		{
			"buffer":0,
			"byteLength":288,
			"byteOffset":16200,
			"target":34962
		},
		{
			"buffer":0,
			"byteLength":288,
			"byteOffset":16488,
			"target":34962
		},
		{
			"buffer":0,
			"byteLength":192,
			"byteOffset":16776,
			"target":34962
		},
		{
			"buffer":0,
			"byteLength":384,
			"byteOffset":16968,
			"target":34962
		},
		{
			"buffer":0,
			"byteLength":23592,
			"byteOffset":17352,
			"target":34962
		},
		{
			"buffer":0,
			"byteLength":23592,
			"byteOffset":40944,
			"target":34962
		},
		{
			"buffer":0,
			"byteLength":15728,
			"byteOffset":64536,
			"target":34962
		},
		{
			"buffer":0,
			"byteLength":31456,
			"byteOffset":80264,
			"target":34962
		},
		{
			"buffer":0,
			"byteLength":5808,
			"byteOffset":111720,
			"target":34963
		},
		{
			"buffer":0,
			"byteLength":23592,
			"byteOffset":117528,
			"target":34962
		},
		{
			"buffer":0,
			"byteLength":23592,
			"byteOffset":141120,
			"target":34962
		},
		{
			"buffer":0,
			"byteLength":15728,
			"byteOffset":164712,
			"target":34962
		},
		{
			"buffer":0,
			"byteLength":31456,
			"byteOffset":180440,
			"target":34962
		}
	],
	"buffers":[
		{
			"byteLength":211896,
			"uri":"combat_scene-46513b24f42b92ad13b4de05c339bf17.bin"
		}
	]
}
