{
	"asset":{
		"generator":"Khronos glTF Blender I/O v4.2.60",
		"version":"2.0"
	},
	"scene":0,
	"scenes":[
		{
			"name":"Scene",
			"nodes":[
				0,
				1,
				2,
				3,
				4,
				5,
				6,
				7,
				8,
				9,
				10,
				11,
				12
			]
		}
	],
	"nodes":[
		{
			"mesh":0,
			"name":"Cube-col.006",
			"translation":[
				18.5,
				20.85590362548828,
				0
			]
		},
		{
			"mesh":1,
			"name":"Cube-col.004"
		},
		{
			"mesh":2,
			"name":"Cube-col.003",
			"rotation":[
				0,
				0,
				0.7071066498756409,
				0.70710688829422
			],
			"translation":[
				10.300000190734863,
				15,
				0
			]
		},
		{
			"mesh":3,
			"name":"Cube-col.002",
			"rotation":[
				0,
				0,
				0.7071066498756409,
				0.70710688829422
			],
			"translation":[
				14.300000190734863,
				13,
				0
			]
		},
		{
			"mesh":4,
			"name":"Cube-col.001",
			"translation":[
				6,
				2,
				0
			]
		},
		{
			"mesh":5,
			"name":"Suzanne",
			"translation":[
				-0.08127253502607346,
				1.381632685661316,
				0
			]
		},
		{
			"mesh":6,
			"name":"Torus",
			"rotation":[
				-0.5000000596046448,
				-0.4999999403953552,
				0.4999999403953552,
				0.5000000596046448
			],
			"translation":[
				27.112520217895508,
				24.576812744140625,
				3.302111963421339e-06
			]
		},
		{
			"mesh":7,
			"name":"Torus.001",
			"rotation":[
				-0.5000000596046448,
				-0.4999999403953552,
				0.4999999403953552,
				0.5000000596046448
			],
			"translation":[
				37.309791564941406,
				28.40549087524414,
				3.3972128221648745e-06
			]
		},
		{
			"mesh":8,
			"name":"Cube-col.005",
			"translation":[
				23.408578872680664,
				14.82480525970459,
				0
			]
		},
		{
			"mesh":9,
			"name":"Torus.002",
			"rotation":[
				-0.5000000596046448,
				-0.4999999403953552,
				0.4999999403953552,
				0.5000000596046448
			],
			"translation":[
				47.926979064941406,
				32.04566955566406,
				3.886302692990284e-06
			]
		},
		{
			"mesh":10,
			"name":"Cube-col.007",
			"translation":[
				59.65422821044922,
				37.74228286743164,
				2.268833895868738e-06
			]
		},
		{
			"mesh":11,
			"name":"Cube-col.008",
			"rotation":[
				0,
				0,
				0.7071066498756409,
				0.70710688829422
			],
			"translation":[
				55.454227447509766,
				29.88637924194336,
				2.2881943095853785e-06
			]
		},
		{
			"mesh":12,
			"name":"Suzanne.001",
			"translation":[
				66.04861450195312,
				39.805728912353516,
				5.348250851966441e-06
			]
		}
	],
	"materials":[
		{
			"doubleSided":true,
			"extras":{
				"yp":{
					"active_ypaint_node":""
				}
			},
			"name":"Material.001",
			"pbrMetallicRoughness":{
				"baseColorFactor":[
					0.800000011920929,
					0.800000011920929,
					0.800000011920929,
					1
				],
				"metallicFactor":0,
				"roughnessFactor":0.5
			}
		}
	],
	"meshes":[
		{
			"name":"Cube.009",
			"primitives":[
				{
					"attributes":{
						"POSITION":0,
						"NORMAL":1,
						"TEXCOORD_0":2,
						"TANGENT":3
					},
					"indices":4,
					"material":0
				}
			]
		},
		{
			"name":"Cube.007",
			"primitives":[
				{
					"attributes":{
						"POSITION":5,
						"NORMAL":6,
						"TEXCOORD_0":7,
						"TANGENT":8
					},
					"indices":4,
					"material":0
				}
			]
		},
		{
			"name":"Cube.006",
			"primitives":[
				{
					"attributes":{
						"POSITION":9,
						"NORMAL":10,
						"TEXCOORD_0":11,
						"TANGENT":12
					},
					"indices":4,
					"material":0
				}
			]
		},
		{
			"name":"Cube.005",
			"primitives":[
				{
					"attributes":{
						"POSITION":13,
						"NORMAL":14,
						"TEXCOORD_0":15,
						"TANGENT":16
					},
					"indices":4,
					"material":0
				}
			]
		},
		{
			"name":"Cube.001",
			"primitives":[
				{
					"attributes":{
						"POSITION":17,
						"NORMAL":18,
						"TEXCOORD_0":19,
						"TANGENT":20
					},
					"indices":4,
					"material":0
				}
			]
		},
		{
			"name":"Suzanne",
			"primitives":[
				{
					"attributes":{
						"POSITION":21,
						"NORMAL":22,
						"TEXCOORD_0":23,
						"TANGENT":24
					},
					"indices":25
				}
			]
		},
		{
			"name":"Torus",
			"primitives":[
				{
					"attributes":{
						"POSITION":26,
						"NORMAL":27,
						"TEXCOORD_0":28,
						"TANGENT":29
					},
					"indices":30
				}
			]
		},
		{
			"name":"Torus.001",
			"primitives":[
				{
					"attributes":{
						"POSITION":31,
						"NORMAL":32,
						"TEXCOORD_0":33,
						"TANGENT":34
					},
					"indices":30
				}
			]
		},
		{
			"name":"Cube.003",
			"primitives":[
				{
					"attributes":{
						"POSITION":35,
						"NORMAL":36,
						"TEXCOORD_0":37,
						"TANGENT":38
					},
					"indices":4,
					"material":0
				}
			]
		},
		{
			"name":"Torus.002",
			"primitives":[
				{
					"attributes":{
						"POSITION":39,
						"NORMAL":40,
						"TEXCOORD_0":41,
						"TANGENT":42
					},
					"indices":30
				}
			]
		},
		{
			"name":"Cube.004",
			"primitives":[
				{
					"attributes":{
						"POSITION":43,
						"NORMAL":44,
						"TEXCOORD_0":45,
						"TANGENT":46
					},
					"indices":4,
					"material":0
				}
			]
		},
		{
			"name":"Cube.008",
			"primitives":[
				{
					"attributes":{
						"POSITION":47,
						"NORMAL":48,
						"TEXCOORD_0":49,
						"TANGENT":50
					},
					"indices":4,
					"material":0
				}
			]
		},
		{
			"name":"Suzanne.001",
			"primitives":[
				{
					"attributes":{
						"POSITION":51,
						"NORMAL":52,
						"TEXCOORD_0":53,
						"TANGENT":54
					},
					"indices":25
				}
			]
		}
	],
	"accessors":[
		{
			"bufferView":0,
			"componentType":5126,
			"count":24,
			"max":[
				2.5,
				0.14409568905830383,
				1
			],
			"min":[
				-4.055903434753418,
				-0.14409568905830383,
				-1
			],
			"type":"VEC3"
		},
		{
			"bufferView":1,
			"componentType":5126,
			"count":24,
			"type":"VEC3"
		},
		{
			"bufferView":2,
			"componentType":5126,
			"count":24,
			"type":"VEC2"
		},
		{
			"bufferView":3,
			"componentType":5126,
			"count":24,
			"type":"VEC4"
		},
		{
			"bufferView":4,
			"componentType":5123,
			"count":36,
			"type":"SCALAR"
		},
		{
			"bufferView":5,
			"componentType":5126,
			"count":24,
			"max":[
				5,
				0.14409568905830383,
				1
			],
			"min":[
				-2.5,
				-0.14409568905830383,
				-1
			],
			"type":"VEC3"
		},
		{
			"bufferView":6,
			"componentType":5126,
			"count":24,
			"type":"VEC3"
		},
		{
			"bufferView":7,
			"componentType":5126,
			"count":24,
			"type":"VEC2"
		},
		{
			"bufferView":8,
			"componentType":5126,
			"count":24,
			"type":"VEC4"
		},
		{
			"bufferView":9,
			"componentType":5126,
			"count":24,
			"max":[
				6,
				0.14409635961055756,
				1
			],
			"min":[
				-6.5,
				-0.1440964788198471,
				-1
			],
			"type":"VEC3"
		},
		{
			"bufferView":10,
			"componentType":5126,
			"count":24,
			"type":"VEC3"
		},
		{
			"bufferView":11,
			"componentType":5126,
			"count":24,
			"type":"VEC2"
		},
		{
			"bufferView":12,
			"componentType":5126,
			"count":24,
			"type":"VEC4"
		},
		{
			"bufferView":13,
			"componentType":5126,
			"count":24,
			"max":[
				8,
				0.1440967619419098,
				1
			],
			"min":[
				-13,
				-0.1440977305173874,
				-1
			],
			"type":"VEC3"
		},
		{
			"bufferView":14,
			"componentType":5126,
			"count":24,
			"type":"VEC3"
		},
		{
			"bufferView":15,
			"componentType":5126,
			"count":24,
			"type":"VEC2"
		},
		{
			"bufferView":16,
			"componentType":5126,
			"count":24,
			"type":"VEC4"
		},
		{
			"bufferView":17,
			"componentType":5126,
			"count":24,
			"max":[
				8.444095611572266,
				2,
				1
			],
			"min":[
				-2.5,
				-2,
				-1
			],
			"type":"VEC3"
		},
		{
			"bufferView":18,
			"componentType":5126,
			"count":24,
			"type":"VEC3"
		},
		{
			"bufferView":19,
			"componentType":5126,
			"count":24,
			"type":"VEC2"
		},
		{
			"bufferView":20,
			"componentType":5126,
			"count":24,
			"type":"VEC4"
		},
		{
			"bufferView":21,
			"componentType":5126,
			"count":1966,
			"max":[
				1.3671875,
				0.984375,
				0.8515625
			],
			"min":[
				-1.3671875,
				-0.984375,
				-0.8515625
			],
			"type":"VEC3"
		},
		{
			"bufferView":22,
			"componentType":5126,
			"count":1966,
			"type":"VEC3"
		},
		{
			"bufferView":23,
			"componentType":5126,
			"count":1966,
			"type":"VEC2"
		},
		{
			"bufferView":24,
			"componentType":5126,
			"count":1966,
			"type":"VEC4"
		},
		{
			"bufferView":25,
			"componentType":5123,
			"count":2904,
			"type":"SCALAR"
		},
		{
			"bufferView":26,
			"componentType":5126,
			"count":2304,
			"max":[
				1.25,
				0.25,
				1.25
			],
			"min":[
				-1.25,
				-0.25,
				-1.25
			],
			"type":"VEC3"
		},
		{
			"bufferView":27,
			"componentType":5126,
			"count":2304,
			"type":"VEC3"
		},
		{
			"bufferView":28,
			"componentType":5126,
			"count":2304,
			"type":"VEC2"
		},
		{
			"bufferView":29,
			"componentType":5126,
			"count":2304,
			"type":"VEC4"
		},
		{
			"bufferView":30,
			"componentType":5123,
			"count":3456,
			"type":"SCALAR"
		},
		{
			"bufferView":31,
			"componentType":5126,
			"count":2304,
			"max":[
				1.25,
				0.25,
				1.25
			],
			"min":[
				-1.25,
				-0.25,
				-1.25
			],
			"type":"VEC3"
		},
		{
			"bufferView":32,
			"componentType":5126,
			"count":2304,
			"type":"VEC3"
		},
		{
			"bufferView":33,
			"componentType":5126,
			"count":2304,
			"type":"VEC2"
		},
		{
			"bufferView":34,
			"componentType":5126,
			"count":2304,
			"type":"VEC4"
		},
		{
			"bufferView":35,
			"componentType":5126,
			"count":24,
			"max":[
				32.20636749267578,
				2,
				1
			],
			"min":[
				-2.5,
				-2,
				-1
			],
			"type":"VEC3"
		},
		{
			"bufferView":36,
			"componentType":5126,
			"count":24,
			"type":"VEC3"
		},
		{
			"bufferView":37,
			"componentType":5126,
			"count":24,
			"type":"VEC2"
		},
		{
			"bufferView":38,
			"componentType":5126,
			"count":24,
			"type":"VEC4"
		},
		{
			"bufferView":39,
			"componentType":5126,
			"count":2304,
			"max":[
				1.25,
				0.25,
				1.25
			],
			"min":[
				-1.25,
				-0.25,
				-1.25
			],
			"type":"VEC3"
		},
		{
			"bufferView":40,
			"componentType":5126,
			"count":2304,
			"type":"VEC3"
		},
		{
			"bufferView":41,
			"componentType":5126,
			"count":2304,
			"type":"VEC2"
		},
		{
			"bufferView":42,
			"componentType":5126,
			"count":2304,
			"type":"VEC4"
		},
		{
			"bufferView":43,
			"componentType":5126,
			"count":24,
			"max":[
				7.96026611328125,
				0.14409568905830383,
				1
			],
			"min":[
				-4.055903434753418,
				-0.14409568905830383,
				-1
			],
			"type":"VEC3"
		},
		{
			"bufferView":44,
			"componentType":5126,
			"count":24,
			"type":"VEC3"
		},
		{
			"bufferView":45,
			"componentType":5126,
			"count":24,
			"type":"VEC2"
		},
		{
			"bufferView":46,
			"componentType":5126,
			"count":24,
			"type":"VEC4"
		},
		{
			"bufferView":47,
			"componentType":5126,
			"count":24,
			"max":[
				8,
				0.1440967619419098,
				1
			],
			"min":[
				-13,
				-0.1440977305173874,
				-1
			],
			"type":"VEC3"
		},
		{
			"bufferView":48,
			"componentType":5126,
			"count":24,
			"type":"VEC3"
		},
		{
			"bufferView":49,
			"componentType":5126,
			"count":24,
			"type":"VEC2"
		},
		{
			"bufferView":50,
			"componentType":5126,
			"count":24,
			"type":"VEC4"
		},
		{
			"bufferView":51,
			"componentType":5126,
			"count":1966,
			"max":[
				1.3671875,
				0.984375,
				0.8515625
			],
			"min":[
				-1.3671875,
				-0.984375,
				-0.8515625
			],
			"type":"VEC3"
		},
		{
			"bufferView":52,
			"componentType":5126,
			"count":1966,
			"type":"VEC3"
		},
		{
			"bufferView":53,
			"componentType":5126,
			"count":1966,
			"type":"VEC2"
		},
		{
			"bufferView":54,
			"componentType":5126,
			"count":1966,
			"type":"VEC4"
		}
	],
	"bufferViews":[
		{
			"buffer":0,
			"byteLength":288,
			"byteOffset":0,
			"target":34962
		},
		{
			"buffer":0,
			"byteLength":288,
			"byteOffset":288,
			"target":34962
		},
		{
			"buffer":0,
			"byteLength":192,
			"byteOffset":576,
			"target":34962
		},
		{
			"buffer":0,
			"byteLength":384,
			"byteOffset":768,
			"target":34962
		},
		{
			"buffer":0,
			"byteLength":72,
			"byteOffset":1152,
			"target":34963
		},
		{
			"buffer":0,
			"byteLength":288,
			"byteOffset":1224,
			"target":34962
		},
		{
			"buffer":0,
			"byteLength":288,
			"byteOffset":1512,
			"target":34962
		},
		{
			"buffer":0,
			"byteLength":192,
			"byteOffset":1800,
			"target":34962
		},
		{
			"buffer":0,
			"byteLength":384,
			"byteOffset":1992,
			"target":34962
		},
		{
			"buffer":0,
			"byteLength":288,
			"byteOffset":2376,
			"target":34962
		},
		{
			"buffer":0,
			"byteLength":288,
			"byteOffset":2664,
			"target":34962
		},
		{
			"buffer":0,
			"byteLength":192,
			"byteOffset":2952,
			"target":34962
		},
		{
			"buffer":0,
			"byteLength":384,
			"byteOffset":3144,
			"target":34962
		},
		{
			"buffer":0,
			"byteLength":288,
			"byteOffset":3528,
			"target":34962
		},
		{
			"buffer":0,
			"byteLength":288,
			"byteOffset":3816,
			"target":34962
		},
		{
			"buffer":0,
			"byteLength":192,
			"byteOffset":4104,
			"target":34962
		},
		{
			"buffer":0,
			"byteLength":384,
			"byteOffset":4296,
			"target":34962
		},
		{
			"buffer":0,
			"byteLength":288,
			"byteOffset":4680,
			"target":34962
		},
		{
			"buffer":0,
			"byteLength":288,
			"byteOffset":4968,
			"target":34962
		},
		{
			"buffer":0,
			"byteLength":192,
			"byteOffset":5256,
			"target":34962
		},
		{
			"buffer":0,
			"byteLength":384,
			"byteOffset":5448,
			"target":34962
		},
		{
			"buffer":0,
			"byteLength":23592,
			"byteOffset":5832,
			"target":34962
		},
		{
			"buffer":0,
			"byteLength":23592,
			"byteOffset":29424,
			"target":34962
		},
		{
			"buffer":0,
			"byteLength":15728,
			"byteOffset":53016,
			"target":34962
		},
		{
			"buffer":0,
			"byteLength":31456,
			"byteOffset":68744,
			"target":34962
		},
		{
			"buffer":0,
			"byteLength":5808,
			"byteOffset":100200,
			"target":34963
		},
		{
			"buffer":0,
			"byteLength":27648,
			"byteOffset":106008,
			"target":34962
		},
		{
			"buffer":0,
			"byteLength":27648,
			"byteOffset":133656,
			"target":34962
		},
		{
			"buffer":0,
			"byteLength":18432,
			"byteOffset":161304,
			"target":34962
		},
		{
			"buffer":0,
			"byteLength":36864,
			"byteOffset":179736,
			"target":34962
		},
		{
			"buffer":0,
			"byteLength":6912,
			"byteOffset":216600,
			"target":34963
		},
		{
			"buffer":0,
			"byteLength":27648,
			"byteOffset":223512,
			"target":34962
		},
		{
			"buffer":0,
			"byteLength":27648,
			"byteOffset":251160,
			"target":34962
		},
		{
			"buffer":0,
			"byteLength":18432,
			"byteOffset":278808,
			"target":34962
		},
		{
			"buffer":0,
			"byteLength":36864,
			"byteOffset":297240,
			"target":34962
		},
		{
			"buffer":0,
			"byteLength":288,
			"byteOffset":334104,
			"target":34962
		},
		{
			"buffer":0,
			"byteLength":288,
			"byteOffset":334392,
			"target":34962
		},
		{
			"buffer":0,
			"byteLength":192,
			"byteOffset":334680,
			"target":34962
		},
		{
			"buffer":0,
			"byteLength":384,
			"byteOffset":334872,
			"target":34962
		},
		{
			"buffer":0,
			"byteLength":27648,
			"byteOffset":335256,
			"target":34962
		},
		{
			"buffer":0,
			"byteLength":27648,
			"byteOffset":362904,
			"target":34962
		},
		{
			"buffer":0,
			"byteLength":18432,
			"byteOffset":390552,
			"target":34962
		},
		{
			"buffer":0,
			"byteLength":36864,
			"byteOffset":408984,
			"target":34962
		},
		{
			"buffer":0,
			"byteLength":288,
			"byteOffset":445848,
			"target":34962
		},
		{
			"buffer":0,
			"byteLength":288,
			"byteOffset":446136,
			"target":34962
		},
		{
			"buffer":0,
			"byteLength":192,
			"byteOffset":446424,
			"target":34962
		},
		{
			"buffer":0,
			"byteLength":384,
			"byteOffset":446616,
			"target":34962
		},
		{
			"buffer":0,
			"byteLength":288,
			"byteOffset":447000,
			"target":34962
		},
		{
			"buffer":0,
			"byteLength":288,
			"byteOffset":447288,
			"target":34962
		},
		{
			"buffer":0,
			"byteLength":192,
			"byteOffset":447576,
			"target":34962
		},
		{
			"buffer":0,
			"byteLength":384,
			"byteOffset":447768,
			"target":34962
		},
		{
			"buffer":0,
			"byteLength":23592,
			"byteOffset":448152,
			"target":34962
		},
		{
			"buffer":0,
			"byteLength":23592,
			"byteOffset":471744,
			"target":34962
		},
		{
			"buffer":0,
			"byteLength":15728,
			"byteOffset":495336,
			"target":34962
		},
		{
			"buffer":0,
			"byteLength":31456,
			"byteOffset":511064,
			"target":34962
		}
	],
	"buffers":[
		{
			"byteLength":542520,
			"uri":"platforming_challenge-6511f56f617cf668db5ec1899b91e08e.bin"
		}
	]
}
